HIERARCHY
ROOT reference
{
  OFFSET 0 0 0
  CHANNELS 6 Xposition Yposition Zposition Zrotation Xrotation Yrotation
  JOINT Hips
  {
    OFFSET 356.501 91.4882 232.072
    CHANNELS 3 Zrotation Xrotation Yrotation
    JOINT RightUpLeg
    {
      OFFSET -9.22368 -1.56954 0.0182318
      CHANNELS 3 Zrotation Xrotation Yrotation
      JOINT RightLeg
      {
        OFFSET 0.0168043 -41.8502 0.039304
        CHANNELS 3 Zrotation Xrotation Yrotation
        JOINT RightFoot
        {
          OFFSET -1.24655 -41.4872 1.84727
          CHANNELS 3 Zrotation Xrotation Yrotation
          End Site
          {
            OFFSET 0 -7.69 17.5
          }
        }
      }
    }
    JOINT LeftUpLeg
    {
      OFFSET 9.32755 -1.5915 0.117934
      CHANNELS 3 Zrotation Xrotation Yrotation
      JOINT LeftLeg
      {
        OFFSET 0.115891 -41.8441 0.138627
        CHANNELS 3 Zrotation Xrotation Yrotation
        JOINT LeftFoot
        {
          OFFSET -0.00258131 -42.0603 -2.16995
          CHANNELS 3 Zrotation Xrotation Yrotation
          End Site
          {
            OFFSET 0 -7.69 17.5
          }
        }
      }
    }
    JOINT Spine
    {
      OFFSET 0.0618908 14.3142 0.263402
      CHANNELS 3 Zrotation Xrotation Yrotation
      JOINT Spine1
      {
        OFFSET 0.00953893 9.71784 0.0772804
        CHANNELS 3 Zrotation Xrotation Yrotation
        JOINT Spine2
        {
          OFFSET 0.0659978 10.1164 -0.109334
          CHANNELS 3 Zrotation Xrotation Yrotation
          JOINT Spine3
          {
            OFFSET 0.00354353 9.7233 0.0181573
            CHANNELS 3 Zrotation Xrotation Yrotation
            JOINT Neck
            {
              OFFSET -0.106539 10.3631 0.143191
              CHANNELS 3 Zrotation Xrotation Yrotation
              JOINT Head
              {
                OFFSET 0.0687213 9.49492 0.178169
                CHANNELS 3 Zrotation Xrotation Yrotation
                End Site
                {
                  OFFSET 0 15.95 0
                }
              }
            }
            JOINT RightShoulder
            {
              OFFSET -3.17341 6.93407 0.0508814
              CHANNELS 3 Zrotation Xrotation Yrotation
              JOINT RightArm
              {
                OFFSET -12.8122 0.02699 0.0058978
                CHANNELS 3 Zrotation Xrotation Yrotation
                JOINT RightForeArm
                {
                  OFFSET -26.4689 -0.0132424 0.0432591
                  CHANNELS 3 Zrotation Xrotation Yrotation
                  JOINT RightHand
                  {
                    OFFSET -25.9762 -0.0747187 0.0544432
                    CHANNELS 3 Zrotation Xrotation Yrotation
                    JOINT RightHandThumb1
                    {
                      OFFSET -2.48905 0.190105 3.12053
                      CHANNELS 3 Zrotation Xrotation Yrotation
                      JOINT RightHandThumb2
                      {
                        OFFSET -3.68274 0 0
                        CHANNELS 3 Zrotation Xrotation Yrotation
                        JOINT RightHandThumb3
                        {
                          OFFSET -2.55832 0 0
                          CHANNELS 3 Zrotation Xrotation Yrotation
                          End Site
                          {
                            OFFSET -2.194 0 0
                          }
                        }
                      }
                    }
                    JOINT RightInHandIndex
                    {
                      OFFSET -3.22368 0.508421 1.97842
                      CHANNELS 3 Zrotation Xrotation Yrotation
                      JOINT RightHandIndex1
                      {
                        OFFSET -5.21684 -0.091368 0.999158
                        CHANNELS 3 Zrotation Xrotation Yrotation
                        JOINT RightHandIndex2
                        {
                          OFFSET -3.61937 0 0
                          CHANNELS 3 Zrotation Xrotation Yrotation
                          JOINT RightHandIndex3
                          {
                            OFFSET -2.0521 0 0
                            CHANNELS 3 Zrotation Xrotation Yrotation
                            End Site
                            {
                              OFFSET -1.805 0 0
                            }
                          }
                        }
                      }
                    }
                    JOINT RightInHandMiddle
                    {
                      OFFSET -3.38211 0.517263 0.756737
                      CHANNELS 3 Zrotation Xrotation Yrotation
                      JOINT RightHandMiddle1
                      {
                        OFFSET -5.17411 -0.084 0.313895
                        CHANNELS 3 Zrotation Xrotation Yrotation
                        JOINT RightHandMiddle2
                        {
                          OFFSET -3.94947 0 0
                          CHANNELS 3 Zrotation Xrotation Yrotation
                          JOINT RightHandMiddle3
                          {
                            OFFSET -2.47579 0 0
                            CHANNELS 3 Zrotation Xrotation Yrotation
                            End Site
                            {
                              OFFSET -1.975 0 0
                            }
                          }
                        }
                      }
                    }
                    JOINT RightInHandRing
                    {
                      OFFSET -3.36516 0.537895 -0.128947
                      CHANNELS 3 Zrotation Xrotation Yrotation
                      JOINT RightHandRing1
                      {
                        OFFSET -4.63474 -0.022105 -0.478947
                        CHANNELS 3 Zrotation Xrotation Yrotation
                        JOINT RightHandRing2
                        {
                          OFFSET -3.44238 0 0
                          CHANNELS 3 Zrotation Xrotation Yrotation
                          JOINT RightHandRing3
                          {
                            OFFSET -2.3881 0 0
                            CHANNELS 3 Zrotation Xrotation Yrotation
                            End Site
                            {
                              OFFSET -1.857 0 0
                            }
                          }
                        }
                      }
                    }
                    JOINT RightInHandPinky
                    {
                      OFFSET -3.16105 0.469368 -1.20179
                      CHANNELS 3 Zrotation Xrotation Yrotation
                      JOINT RightHandPinky1
                      {
                        OFFSET -4.14105 -0.022105 -1.09053
                        CHANNELS 3 Zrotation Xrotation Yrotation
                        JOINT RightHandPinky2
                        {
                          OFFSET -2.75653 0 0
                          CHANNELS 3 Zrotation Xrotation Yrotation
                          JOINT RightHandPinky3
                          {
                            OFFSET -1.74189 0 0
                            CHANNELS 3 Zrotation Xrotation Yrotation
                            End Site
                            {
                              OFFSET -1.645 0 0
                            }
                          }
                        }
                      }
                    }
                  }
                }
              }
            }
            JOINT LeftShoulder
            {
              OFFSET 3.13763 6.93537 0.265461
              CHANNELS 3 Zrotation Xrotation Yrotation
              JOINT LeftArm
              {
                OFFSET 12.4516 -0.0856895 0.350644
                CHANNELS 3 Zrotation Xrotation Yrotation
                JOINT LeftForeArm
                {
                  OFFSET 26.6962 -0.139113 0.0812581
                  CHANNELS 3 Zrotation Xrotation Yrotation
                  JOINT LeftHand
                  {
                    OFFSET 25.9561 0.0264111 -0.243705
                    CHANNELS 3 Zrotation Xrotation Yrotation
                    JOINT LeftHandThumb1
                    {
                      OFFSET 2.48905 0.190105 3.12053
                      CHANNELS 3 Zrotation Xrotation Yrotation
                      JOINT LeftHandThumb2
                      {
                        OFFSET 3.68274 0 0
                        CHANNELS 3 Zrotation Xrotation Yrotation
                        JOINT LeftHandThumb3
                        {
                          OFFSET 2.55832 0 0
                          CHANNELS 3 Zrotation Xrotation Yrotation
                          End Site
                          {
                            OFFSET 2.194 0 0
                          }
                        }
                      }
                    }
                    JOINT LeftInHandIndex
                    {
                      OFFSET 3.22368 0.508421 1.97842
                      CHANNELS 3 Zrotation Xrotation Yrotation
                      JOINT LeftHandIndex1
                      {
                        OFFSET 5.21684 -0.091368 0.999158
                        CHANNELS 3 Zrotation Xrotation Yrotation
                        JOINT LeftHandIndex2
                        {
                          OFFSET 3.61937 0 0
                          CHANNELS 3 Zrotation Xrotation Yrotation
                          JOINT LeftHandIndex3
                          {
                            OFFSET 2.0521 0 0
                            CHANNELS 3 Zrotation Xrotation Yrotation
                            End Site
                            {
                              OFFSET 1.805 0 0
                            }
                          }
                        }
                      }
                    }
                    JOINT LeftInHandMiddle
                    {
                      OFFSET 3.38211 0.517263 0.756737
                      CHANNELS 3 Zrotation Xrotation Yrotation
                      JOINT LeftHandMiddle1
                      {
                        OFFSET 5.17411 -0.084 0.313895
                        CHANNELS 3 Zrotation Xrotation Yrotation
                        JOINT LeftHandMiddle2
                        {
                          OFFSET 3.94947 0 0
                          CHANNELS 3 Zrotation Xrotation Yrotation
                          JOINT LeftHandMiddle3
                          {
                            OFFSET 2.47579 0 0
                            CHANNELS 3 Zrotation Xrotation Yrotation
                            End Site
                            {
                              OFFSET 1.975 0 0
                            }
                          }
                        }
                      }
                    }
                    JOINT LeftInHandRing
                    {
                      OFFSET 3.36516 0.537895 -0.128947
                      CHANNELS 3 Zrotation Xrotation Yrotation
                      JOINT LeftHandRing1
                      {
                        OFFSET 4.63474 -0.022105 -0.478947
                        CHANNELS 3 Zrotation Xrotation Yrotation
                        JOINT LeftHandRing2
                        {
                          OFFSET 3.44238 0 0
                          CHANNELS 3 Zrotation Xrotation Yrotation
                          JOINT LeftHandRing3
                          {
                            OFFSET 2.3881 0 0
                            CHANNELS 3 Zrotation Xrotation Yrotation
                            End Site
                            {
                              OFFSET 1.857 0 0
                            }
                          }
                        }
                      }
                    }
                    JOINT LeftInHandPinky
                    {
                      OFFSET 3.16105 0.469368 -1.20179
                      CHANNELS 3 Zrotation Xrotation Yrotation
                      JOINT LeftHandPinky1
                      {
                        OFFSET 4.14105 -0.022105 -1.09053
                        CHANNELS 3 Zrotation Xrotation Yrotation
                        JOINT LeftHandPinky2
                        {
                          OFFSET 2.75653 0 0
                          CHANNELS 3 Zrotation Xrotation Yrotation
                          JOINT LeftHandPinky3
                          {
                            OFFSET 1.74189 0 0
                            CHANNELS 3 Zrotation Xrotation Yrotation
                            End Site
                            {
                              OFFSET 1.645 0 0
                            }
                          }
                        }
                      }
                    }
                  }
                }
              }
            }
          }
        }
      }
    }
  }
}
MOTION
Frames: 2
Frame Time: 0.00833333
2.250000000000000000e+03 0.000000000000000000e+00 0.000000000000000000e+00 0.000000000000000000e+00 0.000000000000000000e+00 0.000000000000000000e+00 2.328359999999999630e+01 1.324089999999999812e+01 -7.094029999999999347e+01 -1.712620000000000431e+01 -5.156730000000001013e+01 -1.875000000000000355e+01 -8.745739999999999625e-01 2.604469999999999885e+01 -1.565509999999999735e+01 1.153839999999999932e+01 4.732989999999999142e+00 2.635889999999999844e+01 1.847899999999999565e+01 -4.290319999999999823e+01 4.865039999999998699e+00 2.557329999999999881e+00 3.209669999999999135e+01 7.168860000000000232e-01 -1.350849999999999973e+01 -1.304750000000000298e+01 -1.647810000000000130e+01 -8.571049999999997837e+00 1.416900000000000048e+01 1.621290000000000120e+01 -1.768520000000000314e+00 3.720899999999999874e+00 3.819289999999999630e+00 -2.940190000000000303e+00 5.954289999999999417e+00 6.185540000000001370e+00 -9.937609999999999499e-02 -1.601170000000000093e-01 -4.748989999999998490e-01 -9.940130000000002575e-02 -1.607840000000000380e-01 -4.754490000000002325e-01 -1.975039999999999907e+00 -3.225389999999999979e+00 -8.341009999999998925e+00 -1.677820000000000145e-01 -1.549340000000000117e+01 2.222960000000000136e+01 7.274200000000000443e+01 1.873190000000001021e+00 5.212120000000000175e+01 6.167520000000001446e+00 -5.042119999999999180e+01 -6.558029999999997806e+00 2.104179999999999851e+01 -2.083480000000000132e+01 -2.237509999999999621e+01 2.818400000000000105e+01 1.072940000000000005e+01 1.915919999999999845e+01 -1.375970000000000308e-14 -4.770830000000000256e-15 -1.000000000000000000e+01 -1.109090000000000515e-14 -7.951389999999999226e-15 -1.000000000000000000e+01 -3.180550000000000771e-15 0.000000000000000000e+00 3.180549999999999982e-15 1.998179999999999978e+01 8.718970000000000331e-01 2.396399999999999864e+00 2.400000000000000000e+01 -3.180550000000000771e-15 -3.180549999999997615e-15 2.000000000000000000e+01 -6.758679999999998824e-15 -2.226390000000000586e-14 -3.180550000000000771e-15 0.000000000000000000e+00 3.180549999999999982e-15 2.000000000000000000e+01 -1.590280000000000116e-14 9.541660000000000512e-15 2.400000000000000000e+01 -5.565969999999999999e-15 3.180549999999999193e-15 2.000000000000000000e+01 -1.550520000000000117e-14 -2.862499999999999162e-14 -3.180550000000000771e-15 0.000000000000000000e+00 3.180549999999999982e-15 1.997479999999999833e+01 -1.025649999999999951e+00 -2.819380000000000219e+00 2.400000000000000000e+01 -7.156249999999999484e-15 6.361109999999999741e-15 2.000000000000000000e+01 -1.987850000000000145e-15 -3.498610000000000579e-14 -3.180550000000000771e-15 0.000000000000000000e+00 3.180549999999999982e-15 1.978150000000000119e+01 -3.009479999999999933e+00 -8.305149999999999366e+00 2.400000000000000000e+01 7.951389999999999226e-15 -9.541660000000000512e-15 2.000000000000000000e+01 1.302969999999999950e-14 -2.862499999999999793e-14 1.336639999999999873e+01 -1.373999999999999844e+01 -2.927909999999999613e+01 -3.894959999999999667e+01 3.361560000000000059e+01 -6.658410000000000650e+01 2.997670000000000279e+00 -7.898669999999999902e+01 2.800800000000000622e+00 -2.707589999999999719e+01 -1.891310000000000002e+01 1.077899999999999991e+01 -2.818400000000000105e+01 1.072940000000000005e+01 -1.915919999999999845e+01 -1.121640000000000611e-15 6.361109999999999741e-15 1.000000000000000000e+01 3.722789999999999106e-15 6.361109999999998952e-15 1.000000000000000000e+01 -6.361110000000001319e-15 6.361109999999999741e-15 -3.180550000000000771e-15 -1.998179999999999978e+01 8.718970000000000331e-01 -2.396399999999999864e+00 -2.400000000000000000e+01 3.975689999999998936e-15 3.498609999999999948e-14 -2.000000000000000000e+01 0.000000000000000000e+00 0.000000000000000000e+00 -6.361110000000001319e-15 6.361109999999999741e-15 -3.180550000000000771e-15 -2.000000000000000000e+01 -3.180549999999998799e-15 0.000000000000000000e+00 -2.400000000000000000e+01 1.590280000000000274e-15 9.541659999999997356e-15 -2.000000000000000000e+01 4.770830000000000256e-15 9.541660000000000512e-15 -6.361110000000001319e-15 6.361109999999999741e-15 -3.180550000000000771e-15 -1.997479999999999833e+01 -1.025649999999999951e+00 2.819380000000000219e+00 -2.400000000000000000e+01 -6.361109999999998952e-15 9.541660000000000512e-15 -2.000000000000000000e+01 -1.113190000000000089e-14 -1.272219999999999993e-14 -6.361110000000001319e-15 6.361109999999999741e-15 -3.180550000000000771e-15 -1.978150000000000119e+01 -3.009479999999999933e+00 8.305149999999999366e+00 -2.400000000000000000e+01 3.180550000000000376e-15 2.862499999999999793e-14 -2.000000000000000000e+01 4.770830000000000256e-15 9.541660000000000512e-15
2.250000000000000000e+03 0.000000000000000000e+00 0.000000000000000000e+00 0.000000000000000000e+00 0.000000000000000000e+00 0.000000000000000000e+00 2.329949999999999832e+01 1.321219999999999928e+01 -7.099339999999997985e+01 -1.711220000000000141e+01 -5.158649999999999380e+01 -1.873079999999999856e+01 -8.888639999999999874e-01 2.603029999999999688e+01 -1.560479999999999734e+01 1.153030000000000044e+01 4.749329999999999607e+00 2.635960000000000036e+01 1.847560000000000002e+01 -4.290049999999999386e+01 4.882340000000001012e+00 2.535660000000000025e+00 3.211390000000000100e+01 7.372499999999999609e-01 -1.349419999999999931e+01 -1.305880000000000152e+01 -1.645200000000000173e+01 -8.566859999999998365e+00 1.416010000000000169e+01 1.620649999999999835e+01 -1.768520000000000092e+00 3.720899999999999430e+00 3.819289999999999630e+00 -2.940189999999999415e+00 5.954290000000000305e+00 6.185539999999999594e+00 -9.937609999999999499e-02 -1.601170000000000093e-01 -4.748989999999999601e-01 -9.940129999999999799e-02 -1.607839999999998160e-01 -4.754489999999993444e-01 -1.892449999999999743e+00 -3.142059999999999853e+00 -8.442520000000000024e+00 -1.531609999999999916e-01 -1.545810000000000173e+01 2.224009999999999820e+01 7.273510000000001696e+01 1.846249999999999503e+00 5.213550000000000040e+01 6.283849999999999270e+00 -5.041800000000000637e+01 -6.425980000000000913e+00 2.104259999999999664e+01 -2.072810000000000130e+01 -2.237300000000000466e+01 2.818400000000000105e+01 1.072940000000000005e+01 1.915919999999999845e+01 9.969269999999999585e-15 1.590280000000000077e-15 -1.000000000000000000e+01 1.319890000000000233e-14 1.590280000000000274e-15 -1.000000000000000000e+01 -3.180549999999998404e-15 -3.180550000000000376e-15 1.590280000000001063e-15 1.998179999999999978e+01 8.718970000000000331e-01 2.396399999999999864e+00 2.400000000000000000e+01 1.113189999999999773e-14 9.541660000000000512e-15 2.000000000000000000e+01 5.565969999999999999e-15 1.272219999999999677e-14 -3.180549999999998404e-15 -3.180550000000000376e-15 1.590280000000001063e-15 2.000000000000000000e+01 -9.541659999999997356e-15 1.272220000000000151e-14 2.400000000000000000e+01 1.590280000000000274e-15 2.544439999999999986e-14 2.000000000000000000e+01 -8.945309999999999410e-15 9.541660000000000512e-15 -3.180549999999998404e-15 -3.180550000000000376e-15 1.590280000000001063e-15 1.997479999999999833e+01 -1.025649999999999951e+00 -2.819380000000000219e+00 2.400000000000000000e+01 2.385420000000000017e-15 1.590279999999999801e-14 2.000000000000000000e+01 -4.174479999999999154e-15 3.180549999999999982e-15 -3.180549999999998404e-15 -3.180550000000000376e-15 1.590280000000001063e-15 1.978150000000000119e+01 -3.009479999999999933e+00 -8.305149999999999366e+00 2.400000000000000000e+01 1.590280000000002641e-15 9.541660000000000512e-15 2.000000000000000000e+01 9.094399999999998841e-15 3.180550000000000376e-15 1.340290000000000248e+01 -1.372990000000000244e+01 -2.935910000000000153e+01 -3.903229999999999222e+01 3.354930000000000234e+01 -6.652589999999999293e+01 3.124100000000000321e+00 -7.900840000000000884e+01 2.902430000000000732e+00 -2.723010000000000019e+01 -1.894430000000000192e+01 1.070880000000000010e+01 -2.818400000000000105e+01 1.072940000000000005e+01 -1.915919999999999845e+01 -3.510029999999999964e-15 1.590280000000000274e-15 1.000000000000000000e+01 4.564020000000000353e-15 1.590280000000000274e-15 1.000000000000000000e+01 -6.361109999999998163e-15 -3.180549999999999982e-15 0.000000000000000000e+00 -1.998179999999999978e+01 8.718970000000000331e-01 -2.396399999999999864e+00 -2.400000000000000000e+01 1.113189999999999931e-14 2.226390000000000270e-14 -2.000000000000000000e+01 0.000000000000000000e+00 3.180549999999999193e-15 -6.361109999999998163e-15 -3.180549999999999982e-15 0.000000000000000000e+00 -2.000000000000000000e+01 -1.590280000000000116e-14 6.361109999999999741e-15 -2.400000000000000000e+01 1.192710000000000403e-15 2.226389999999999955e-14 -2.000000000000000000e+01 3.180549999999999982e-15 9.541659999999998934e-15 -6.361109999999998163e-15 -3.180549999999999982e-15 0.000000000000000000e+00 -1.997479999999999833e+01 -1.025649999999999951e+00 2.819380000000000219e+00 -2.400000000000000000e+01 -7.951389999999997649e-15 1.590280000000000432e-14 -2.000000000000000000e+01 -7.951389999999999226e-15 9.541660000000000512e-15 -6.361109999999998163e-15 -3.180549999999999982e-15 0.000000000000000000e+00 -1.978150000000000119e+01 -3.009479999999999933e+00 8.305149999999999366e+00 -2.400000000000000000e+01 9.541660000000000512e-15 2.544439999999999986e-14 -2.000000000000000000e+01 1.590280000000001063e-15 9.541660000000000512e-15
